<svg xmlns="http://www.w3.org/2000/svg" viewBox="0 0 388.82 210.55"><defs><style>.cls-1,.cls-4{stroke:#000;}.cls-1,.cls-2,.cls-3,.cls-4,.cls-5,.cls-6,.cls-7{stroke-miterlimit:10;}.cls-1,.cls-2,.cls-3{stroke-width:6.28px;}.cls-2,.cls-3,.cls-5,.cls-6,.cls-7{fill:#fff;}.cls-2,.cls-5{stroke:#41aa54;}.cls-3,.cls-6{stroke:#4fa0ca;}.cls-7{stroke:#ff8001;}</style></defs><g id="Layer_2" data-name="Layer 2"><g id="Layer_1-2" data-name="Layer 1"><path d="M107.78,159.23s16.14-16.13,18.56-31.54-16.88,23-16.88,23Z"/><path d="M234.57,121.76s-4,19.11-17.08,26.57,8.95-18,8.95-18Z"/><path d="M294.9,127.55s-3.57,13.26-11,16,4-12.12,4-12.12Z"/><polygon points="377.01 116.25 383.19 105.64 373.67 113.2 377.01 116.25"/><path d="M317.61,40.06s-20.35,12-21.81,34.06l8.37-2.65Z"/><path d="M126.54,34.45c2.26-7.37,4.49-9.86,8.39-14.91l1.8,13.67Z"/><path d="M80,40.37c2.26-7.38,4.86-9.95,8.76-15l1.43,13.76Z"/><path d="M230.64,19.55c2.26-7.37,4.49-9.86,8.39-14.91l1.8,13.67Z"/><path d="M167,73.43c2.26-7.37,4.52-9.71,8.42-14.77l1.77,13.53Z"/><path class="cls-1" d="M120.07,112.43a47.72,47.72,0,0,1,.59,19.82,46,46,0,0,1-7,17.29,44.67,44.67,0,0,1-13.3,12.91A45.88,45.88,0,0,1,82,169.12,52.46,52.46,0,0,1,61.38,168a59.22,59.22,0,0,1-18.59-8.26,56.62,56.62,0,0,1-14.56-14.21,52.38,52.38,0,0,1-8.51-18.77L3.51,57.39a10.13,10.13,0,0,1,1.12-8.14q2.22-3.42,7.23-4.14,5.69-.81,9,2a13.27,13.27,0,0,1,4.39,7.35L41.09,122.9A27.72,27.72,0,0,0,46,133.36a35.5,35.5,0,0,0,19.2,13,28.32,28.32,0,0,0,11.62.78,24.44,24.44,0,0,0,10.37-3.93,26.38,26.38,0,0,0,7.47-7.53,27.3,27.3,0,0,0,3.93-9.89,26.69,26.69,0,0,0-.29-11.13l-16-68.59a9.62,9.62,0,0,1,1.35-8.26,10.35,10.35,0,0,1,7.18-4.05A10.8,10.8,0,0,1,99.1,36a12,12,0,0,1,4.75,7Z"/><path class="cls-1" d="M196.67,152.7a62.91,62.91,0,0,1-10.76.53,41.17,41.17,0,0,1-11.54-2,7.42,7.42,0,0,1-3,4.22,10.58,10.58,0,0,1-3.86,1.48,9.53,9.53,0,0,1-7.71-1.84,12.63,12.63,0,0,1-4.17-7.21L130,38.44A9,9,0,0,1,131.29,31a8.72,8.72,0,0,1,6.22-3.83A10.25,10.25,0,0,1,145.22,29a11.09,11.09,0,0,1,4.39,6.68L172.12,132a25.11,25.11,0,0,0,9.48,2.42,46.26,46.26,0,0,0,9.54-.27,18.17,18.17,0,0,0,14.11-9.66,21.41,21.41,0,0,0,2.34-8.32,29.74,29.74,0,0,0-.71-9.3,36.69,36.69,0,0,0-3.95-10.27,29.86,29.86,0,0,0-5.71-7.25,19.18,19.18,0,0,0-6.68-4,13.08,13.08,0,0,0-6.65-.56L181,85.4a6,6,0,0,1-3.29-.12,8.62,8.62,0,0,1-3-1.66,10.57,10.57,0,0,1-2.36-2.77,11.59,11.59,0,0,1-1.4-3.41Q169.8,72.9,172.29,70t8-3.66a35.89,35.89,0,0,1,13.64.82,39.38,39.38,0,0,1,13.66,6.36,46.94,46.94,0,0,1,11.57,12.11,53.47,53.47,0,0,1,7.56,18.07A53,53,0,0,1,228,121.83a36.15,36.15,0,0,1-4.85,14.81,31.7,31.7,0,0,1-10.56,10.58A40.87,40.87,0,0,1,196.67,152.7Z"/><path class="cls-1" d="M284.13,125.72a10.29,10.29,0,0,1,2.74,5.16,9.59,9.59,0,0,1-.32,4.83,9.31,9.31,0,0,1-2.54,3.81,7.91,7.91,0,0,1-4.26,1.95,12.63,12.63,0,0,1-6.77-.71,25.21,25.21,0,0,1-6.64-4.59q-2.64-2.47-6-8.63a59.23,59.23,0,0,1-5.54-15.25L234.07,23.71a8.83,8.83,0,0,1,0-4.12,8.93,8.93,0,0,1,1.67-3.51,12.19,12.19,0,0,1,2.74-2.58,7.86,7.86,0,0,1,3.37-1.32,9.26,9.26,0,0,1,3.84.29,15.29,15.29,0,0,1,3.81,1.64,11.54,11.54,0,0,1,3.15,2.82,9.91,9.91,0,0,1,1.84,3.86l20.09,86a40.25,40.25,0,0,0,4.73,12.17A45.16,45.16,0,0,0,284.13,125.72Z"/><path class="cls-1" d="M349.09,130.87a41.51,41.51,0,0,1-16.66-.89,44.4,44.4,0,0,1-14.74-7,45.58,45.58,0,0,1-11.51-12.21,51.79,51.79,0,0,1-7-16.64,48,48,0,0,1-1-17.58,36.91,36.91,0,0,1,5.2-14.77A34.33,34.33,0,0,1,314,51.15a37.48,37.48,0,0,1,15.18-5.45,41.39,41.39,0,0,1,16.67.89,42.59,42.59,0,0,1,14.67,7A48.39,48.39,0,0,1,372.08,66a51.36,51.36,0,0,1,7.07,16.71,47.41,47.41,0,0,1,1,17.5,36.19,36.19,0,0,1-5.25,14.6,34.71,34.71,0,0,1-10.64,10.6A37.48,37.48,0,0,1,349.09,130.87ZM333.33,63.41a17.68,17.68,0,0,0-8.17,3.19A16.93,16.93,0,0,0,320,72.89a24,24,0,0,0-2.25,8.72,34,34,0,0,0,.9,10.45q2.58,11.06,9.78,16.91A20.63,20.63,0,0,0,345,113.48q9.45-1.37,13.54-8.83t1.5-18.52a36.16,36.16,0,0,0-3.85-9.87,29.62,29.62,0,0,0-6.15-7.6,22.61,22.61,0,0,0-7.82-4.51A19.53,19.53,0,0,0,333.33,63.41Z"/><polygon points="1.73 48.21 6.7 39.49 10.04 51.67 2.02 56.59 1.73 48.21"/><path class="cls-2" d="M125.18,103.48a47.72,47.72,0,0,1,.59,19.82,45.86,45.86,0,0,1-7,17.29,44.49,44.49,0,0,1-13.29,12.9,46,46,0,0,1-18.45,6.68,52.65,52.65,0,0,1-20.59-1.09,59.43,59.43,0,0,1-18.59-8.25,56.79,56.79,0,0,1-14.56-14.21,52.46,52.46,0,0,1-8.51-18.77L8.62,48.44A10.13,10.13,0,0,1,9.74,40.3C11.22,38,13.63,36.63,17,36.16c3.78-.55,6.79.12,9,2a13.27,13.27,0,0,1,4.39,7.35L46.2,113.94a27.69,27.69,0,0,0,4.93,10.47,35.82,35.82,0,0,0,8.47,8.11,35.42,35.42,0,0,0,10.73,4.93,28.31,28.31,0,0,0,11.62.77,24.43,24.43,0,0,0,10.37-3.92,26.51,26.51,0,0,0,7.47-7.53,27.3,27.3,0,0,0,3.93-9.89,26.69,26.69,0,0,0-.29-11.13l-16-68.59a9.59,9.59,0,0,1,1.36-8.26,10.31,10.31,0,0,1,7.17-4A10.83,10.83,0,0,1,104.21,27,12.15,12.15,0,0,1,109,34.07Z"/><path class="cls-3" d="M201.78,143.74a61.91,61.91,0,0,1-10.76.53,40.8,40.8,0,0,1-11.54-2,7.42,7.42,0,0,1-3,4.22,10.57,10.57,0,0,1-3.85,1.47,9.54,9.54,0,0,1-7.72-1.83,12.73,12.73,0,0,1-4.17-7.22L135.15,29.48A9,9,0,0,1,136.4,22a8.75,8.75,0,0,1,6.22-3.83A10.26,10.26,0,0,1,150.33,20a11.06,11.06,0,0,1,4.39,6.68l22.51,96.39a25.3,25.3,0,0,0,9.48,2.42,45.51,45.51,0,0,0,9.54-.28,18.79,18.79,0,0,0,8.65-3.33,18.58,18.58,0,0,0,5.46-6.33,21.31,21.31,0,0,0,2.34-8.31,29.82,29.82,0,0,0-.71-9.31,37.24,37.24,0,0,0-3.94-10.27,30.06,30.06,0,0,0-5.72-7.24,19,19,0,0,0-6.68-4,12.94,12.94,0,0,0-6.64-.56l-2.95.59a6,6,0,0,1-3.29-.12,8.79,8.79,0,0,1-3-1.66,10.73,10.73,0,0,1-2.36-2.77,11.59,11.59,0,0,1-1.4-3.41c-.71-3-.23-5.51,1.43-7.43s4.33-3.14,8-3.66a35.88,35.88,0,0,1,13.64.81,39.75,39.75,0,0,1,13.66,6.36,47.15,47.15,0,0,1,11.57,12.12,53.39,53.39,0,0,1,7.56,18.07,53,53,0,0,1,1.32,18.12,36,36,0,0,1-4.85,14.8,31.63,31.63,0,0,1-10.56,10.59A40.7,40.7,0,0,1,201.78,143.74Z"/><path class="cls-3" d="M289.24,116.77a10.37,10.37,0,0,1,2.75,5.15,9.75,9.75,0,0,1-.33,4.84,9.11,9.11,0,0,1-2.54,3.8,7.86,7.86,0,0,1-4.26,2,12.63,12.63,0,0,1-6.77-.71,25.2,25.2,0,0,1-6.64-4.6q-2.64-2.47-6-8.62a59.6,59.6,0,0,1-5.54-15.25L239.18,14.75a9,9,0,0,1,1.65-7.62,12.19,12.19,0,0,1,2.74-2.58,7.79,7.79,0,0,1,3.37-1.32,9.26,9.26,0,0,1,3.84.29,15,15,0,0,1,3.81,1.63A11.58,11.58,0,0,1,257.74,8a9.94,9.94,0,0,1,1.84,3.85l20.09,86A40.36,40.36,0,0,0,284.4,110,45.16,45.16,0,0,0,289.24,116.77Z"/><path class="cls-2" d="M354.2,121.92a41.7,41.7,0,0,1-16.66-.89,44.49,44.49,0,0,1-14.74-7,45.73,45.73,0,0,1-11.51-12.21,51.88,51.88,0,0,1-7-16.64,48.23,48.23,0,0,1-1-17.58,36.91,36.91,0,0,1,5.2-14.77,34.25,34.25,0,0,1,10.62-10.68,37.67,37.67,0,0,1,15.19-5.45,41.71,41.71,0,0,1,16.66.89,42.61,42.61,0,0,1,14.67,7.06,48.23,48.23,0,0,1,11.55,12.37,51.27,51.27,0,0,1,7.07,16.71,47.37,47.37,0,0,1,1,17.49A36.18,36.18,0,0,1,380,105.87a34.68,34.68,0,0,1-10.63,10.6A37.72,37.72,0,0,1,354.2,121.92ZM338.44,54.46a17.54,17.54,0,0,0-8.16,3.19,17,17,0,0,0-5.22,6.29,23.86,23.86,0,0,0-2.25,8.72,34.07,34.07,0,0,0,.9,10.45q2.58,11.06,9.78,16.91a20.59,20.59,0,0,0,16.65,4.5q9.45-1.35,13.54-8.82t1.5-18.53a36.22,36.22,0,0,0-3.85-9.86,29.62,29.62,0,0,0-6.15-7.6,22.61,22.61,0,0,0-7.82-4.51A19.39,19.39,0,0,0,338.44,54.46Z"/><path class="cls-4" d="M88.77,205.52a3.39,3.39,0,0,1,.41,1,1.92,1.92,0,0,1,0,.93,1.27,1.27,0,0,1-.5.69,2.19,2.19,0,0,1-1,.32,1.73,1.73,0,0,1-1.4-.39,5.13,5.13,0,0,1-.87-1l-3.47-5.69-7,.69-1,6.47a2.49,2.49,0,0,1-.53,1,1.82,1.82,0,0,1-1.17.44,1.71,1.71,0,0,1-1.34-.46,2.31,2.31,0,0,1-.73-1.13,1.25,1.25,0,0,1,0-.42.9.9,0,0,0,0-.24c0-.1.06-.37.13-.8l.24-1.48c.09-.55.18-1.12.27-1.69s.16-1,.23-1.45a1.84,1.84,0,0,1-1.11-.63,2.52,2.52,0,0,1-.48-1,1.62,1.62,0,0,1,.23-1.34,1.91,1.91,0,0,1,1.49-.7l.51,0,1.71-11.17a3.64,3.64,0,0,1,.12-.59,2.18,2.18,0,0,1,.27-.58,1.43,1.43,0,0,1,.52-.48,2,2,0,0,1,.87-.25,2.4,2.4,0,0,1,1,.08,2.5,2.5,0,0,1,.74.4,2.91,2.91,0,0,1,.55.56,4.33,4.33,0,0,1,.39.6Zm-8.66-7.35L76.39,192l-1,6.67Z"/><path class="cls-4" d="M97,205a2.07,2.07,0,0,1,.51,1,1.68,1.68,0,0,1-.05.87,1.59,1.59,0,0,1-.45.67,1.3,1.3,0,0,1-.77.31,2.26,2.26,0,0,1-1.23-.18,4.89,4.89,0,0,1-1.21-.88,7.09,7.09,0,0,1-1.11-1.6,11.25,11.25,0,0,1-1-2.79l-3.91-16.12a1.55,1.55,0,0,1,0-.74,1.42,1.42,0,0,1,.29-.62,2.08,2.08,0,0,1,.49-.45,1.35,1.35,0,0,1,.61-.21,1.94,1.94,0,0,1,.7.08,3.12,3.12,0,0,1,.69.33,2.43,2.43,0,0,1,.58.53,2,2,0,0,1,.34.71l3.8,15.65a7.52,7.52,0,0,0,.87,2.23A10,10,0,0,0,97,205Z"/><path class="cls-4" d="M112.32,201.29a4,4,0,0,1,0,2.43,3.73,3.73,0,0,1-1.19,1.6,5.76,5.76,0,0,1-1.91.93,10.4,10.4,0,0,1-3.61.43,11.77,11.77,0,0,1-1.94-.22,6.13,6.13,0,0,1-1.78-.61,1.78,1.78,0,0,1-1-1.16,1.6,1.6,0,0,1,.13-1.06A1,1,0,0,1,102,203a2.9,2.9,0,0,1,1.14.11,11.57,11.57,0,0,0,1.2.32,5,5,0,0,0,.92.12,6.33,6.33,0,0,0,1.07,0,9,9,0,0,0,.92-.14,3.14,3.14,0,0,0,.91-.3,1.62,1.62,0,0,0,.64-.53,1,1,0,0,0,.1-.86,1.42,1.42,0,0,0-.54-.88,2.15,2.15,0,0,0-.91-.4,4.82,4.82,0,0,0-1.09-.09q-.58,0-1.11,0a16.33,16.33,0,0,1-2.07-.11,6.69,6.69,0,0,1-2-.56,5,5,0,0,1-1.67-1.24,4.93,4.93,0,0,1-1-2.14,3.69,3.69,0,0,1,0-2.2,3.89,3.89,0,0,1,1.11-1.57,5.52,5.52,0,0,1,1.75-1,8.81,8.81,0,0,1,2-.44,8.51,8.51,0,0,1,1.51,0,7,7,0,0,1,1.67.33,7.06,7.06,0,0,1,1.6.75,4.65,4.65,0,0,1,1.28,1.22,2.09,2.09,0,0,1,.33.73,1,1,0,0,1-.21,1,1.46,1.46,0,0,1-1,.44,1.44,1.44,0,0,1-1-.2c-.23-.16-.48-.35-.75-.56a4.15,4.15,0,0,0-1-.54,3.93,3.93,0,0,0-1.7-.12c-.24,0-.51.08-.8.14a2.71,2.71,0,0,0-.78.31,1.42,1.42,0,0,0-.54.52,1.12,1.12,0,0,0-.07.8,1.33,1.33,0,0,0,.46.74,2.17,2.17,0,0,0,.79.39,4.72,4.72,0,0,0,1,.15c.33,0,.66,0,1,0a20.38,20.38,0,0,1,2.13.1,8.35,8.35,0,0,1,2.19.53,5.24,5.24,0,0,1,1.86,1.24A4.51,4.51,0,0,1,112.32,201.29Z"/><path class="cls-4" d="M130.09,196.41l5.89,4.27a2.44,2.44,0,0,1,1,1.35,1.46,1.46,0,0,1-.21,1.21,1.55,1.55,0,0,1-1.06.6,2,2,0,0,1-1.49-.47l-6.41-4.64.92,3.78a2.13,2.13,0,0,1-.16,1.4,1.29,1.29,0,0,1-1.12.7,1.83,1.83,0,0,1-1.4-.45,2.45,2.45,0,0,1-.8-1.3L120.46,183a1.67,1.67,0,0,1,.17-1.35,1.42,1.42,0,0,1,1.12-.66,1.89,1.89,0,0,1,1.39.41,2.23,2.23,0,0,1,.8,1.25L126.67,194l.48.35,3.79-5.43a1.53,1.53,0,0,1,1.22-.77,2,2,0,0,1,1.26.37,1.83,1.83,0,0,1,.75,1.06,1.67,1.67,0,0,1-.27,1.41Z"/><path class="cls-4" d="M145.33,200.24a1.94,1.94,0,0,1,.51.95,1.68,1.68,0,0,1-.05.87,1.5,1.5,0,0,1-.45.66,1.31,1.31,0,0,1-.77.32,2.26,2.26,0,0,1-1.23-.18,5.16,5.16,0,0,1-1.21-.88,7.09,7.09,0,0,1-1.11-1.6,11.4,11.4,0,0,1-1-2.79l-3.91-16.13a1.55,1.55,0,0,1,0-.74,1.48,1.48,0,0,1,.29-.62,2.27,2.27,0,0,1,.49-.44,1.35,1.35,0,0,1,.61-.21,1.74,1.74,0,0,1,.7.08,3.12,3.12,0,0,1,.69.33,2.23,2.23,0,0,1,.58.53,1.94,1.94,0,0,1,.34.71l3.8,15.65a7.26,7.26,0,0,0,.88,2.23A9.16,9.16,0,0,0,145.33,200.24Z"/><path class="cls-4" d="M161.38,201.41a2.1,2.1,0,0,1-1.71-.59,7.52,7.52,0,0,1-1.34.56,7,7,0,0,1-1.4.32,9.42,9.42,0,0,1-3.28-.24,8.79,8.79,0,0,1-2.85-1.29,8.69,8.69,0,0,1-2.2-2.24,8.91,8.91,0,0,1-1.34-3.06,8.08,8.08,0,0,1-.19-3.18,6.48,6.48,0,0,1,1-2.66,6.11,6.11,0,0,1,2.07-1.9,7.57,7.57,0,0,1,3-.9,5.39,5.39,0,0,1,1.16.05,3.6,3.6,0,0,1,1.21.35,1.26,1.26,0,0,1,1.09-.81,1.77,1.77,0,0,1,1.39.38,2.33,2.33,0,0,1,.69,1.24l1.95,8a9,9,0,0,0,.42,1.28,4.55,4.55,0,0,0,.67,1.19q.28.41.57.75a2.1,2.1,0,0,1,.4.82,1.52,1.52,0,0,1-.25,1.27A1.44,1.44,0,0,1,161.38,201.41Zm-3.83-4.5-1.76-7.27a5.27,5.27,0,0,0-.93-.22,3.82,3.82,0,0,0-.88,0,4.49,4.49,0,0,0-1.74.52,3.47,3.47,0,0,0-1.19,1.09,3.55,3.55,0,0,0-.58,1.52,4.84,4.84,0,0,0,.1,1.84,5.63,5.63,0,0,0,.78,1.79,5.37,5.37,0,0,0,1.27,1.37,5,5,0,0,0,3.57,1,3.93,3.93,0,0,0,.89-.19c.3-.1.58-.22.86-.34-.09-.2-.17-.38-.23-.56S157.6,197.09,157.55,196.91Z"/><path class="cls-4" d="M177,199.72a1.86,1.86,0,0,1-1.41-.43,2.14,2.14,0,0,1-.78-1.2l-1.5-6.16a16.16,16.16,0,0,0-.49-1.65,4.7,4.7,0,0,0-.69-1.28,2.66,2.66,0,0,0-1-.77,2.86,2.86,0,0,0-1.44-.18,4.08,4.08,0,0,0-1.42.41,2.84,2.84,0,0,0-1,.77l2.25,9.29a1.92,1.92,0,0,1-.15,1.33,1.28,1.28,0,0,1-1.13.73,1.72,1.72,0,0,1-1.42-.48,2.42,2.42,0,0,1-.78-1.24l-2.83-11.66a1.73,1.73,0,0,1,.17-1.45,1.58,1.58,0,0,1,1.18-.62,1.77,1.77,0,0,1,1,.17,1.8,1.8,0,0,1,.72.58,2.78,2.78,0,0,1,1.13-.81,5.68,5.68,0,0,1,1.55-.37,6.46,6.46,0,0,1,5,1.35,8.88,8.88,0,0,1,2.66,4.74l1.69,7a1.74,1.74,0,0,1-.17,1.31A1.38,1.38,0,0,1,177,199.72Z"/><path class="cls-4" d="M187,190.79l5.89,4.27a2.36,2.36,0,0,1,1,1.35,1.4,1.4,0,0,1-.21,1.2,1.52,1.52,0,0,1-1.06.61,2,2,0,0,1-1.49-.48l-6.41-4.63.92,3.78a2.09,2.09,0,0,1-.16,1.39,1.29,1.29,0,0,1-1.12.71,1.8,1.8,0,0,1-1.4-.46,2.38,2.38,0,0,1-.8-1.29l-4.81-19.83a1.65,1.65,0,0,1,.18-1.35,1.4,1.4,0,0,1,1.11-.65,1.84,1.84,0,0,1,1.39.41,2.23,2.23,0,0,1,.8,1.25l2.73,11.27.49.35,3.78-5.43a1.57,1.57,0,0,1,1.22-.78,2,2,0,0,1,1.26.38,1.83,1.83,0,0,1,.75,1.06,1.68,1.68,0,0,1-.27,1.41Z"/><path class="cls-4" d="M209.11,188.34a1.33,1.33,0,0,1,0,.82,1.45,1.45,0,0,1-.39.58,2.1,2.1,0,0,1-.6.38,2.45,2.45,0,0,1-.67.17l-8.67.86a5.71,5.71,0,0,0,2.33,2.3,4.25,4.25,0,0,0,1.19.42,3.43,3.43,0,0,0,1,.07,9.43,9.43,0,0,0,1.33-.22,7.49,7.49,0,0,0,1.21-.46l.3-.07.32-.05a1.79,1.79,0,0,1,1.15.28,1.67,1.67,0,0,1,.71,1.05,2.11,2.11,0,0,1,0,.79,1.42,1.42,0,0,1-.76.87,8.09,8.09,0,0,1-1.39.54,13.05,13.05,0,0,1-2.35.4,8,8,0,0,1-3.08-.3,9,9,0,0,1-2.72-1.38,9.49,9.49,0,0,1-2.1-2.23,8.78,8.78,0,0,1-1.26-2.85,8.45,8.45,0,0,1-.2-3.07,7,7,0,0,1,.91-2.71,6,6,0,0,1,2-2,6.63,6.63,0,0,1,2.92-.95,7.71,7.71,0,0,1,5.72,1.66,8.88,8.88,0,0,1,2,2.25A9.7,9.7,0,0,1,209.11,188.34Zm-3.62-1a5.15,5.15,0,0,0-.69-1.08,4.44,4.44,0,0,0-1-.91,4.37,4.37,0,0,0-1.28-.58,4.19,4.19,0,0,0-1.47-.11,4,4,0,0,0-1.48.42,3.49,3.49,0,0,0-1,.8,3,3,0,0,0-.58,1,4.92,4.92,0,0,0-.19,1.17Z"/><path class="cls-4" d="M224.75,195a1.83,1.83,0,0,1-1.4-.42,2.1,2.1,0,0,1-.79-1.21l-1.5-6.15a14,14,0,0,0-.49-1.65,4.32,4.32,0,0,0-.69-1.28,2.68,2.68,0,0,0-1-.78,2.87,2.87,0,0,0-1.44-.17,3.88,3.88,0,0,0-1.42.41,3,3,0,0,0-1,.76l2.25,9.29a2,2,0,0,1-.15,1.34,1.3,1.3,0,0,1-1.13.73,1.79,1.79,0,0,1-1.42-.48,2.44,2.44,0,0,1-.77-1.24L211,182.49a1.66,1.66,0,0,1,.17-1.45,1.55,1.55,0,0,1,1.17-.62,1.84,1.84,0,0,1,1,.16,2,2,0,0,1,.72.58,2.78,2.78,0,0,1,1.13-.81,6.17,6.17,0,0,1,1.55-.36,6.38,6.38,0,0,1,5,1.35,8.78,8.78,0,0,1,2.66,4.74L226,193a1.71,1.71,0,0,1-.17,1.3A1.33,1.33,0,0,1,224.75,195Z"/><path class="cls-4" d="M239.2,173.1a2,2,0,0,1-.27,1.66,1.89,1.89,0,0,1-1.46.81,2.55,2.55,0,0,1-1.78-.49,2.6,2.6,0,0,1-1.05-1.53,2,2,0,0,1,.27-1.67,2,2,0,0,1,1.47-.81,2.69,2.69,0,0,1,2.82,2Zm1.07,6.16,2.85,11.87a1.91,1.91,0,0,1-.21,1.44,1.4,1.4,0,0,1-1.14.75,1.91,1.91,0,0,1-1.44-.49,2.45,2.45,0,0,1-.87-1.34l-2.91-11.86a1.54,1.54,0,0,1,0-.74,1.86,1.86,0,0,1,.81-1.1,1.44,1.44,0,0,1,.6-.21,1.59,1.59,0,0,1,.66.09,2.67,2.67,0,0,1,.7.34,2.56,2.56,0,0,1,.59.55A1.68,1.68,0,0,1,240.27,179.26Z"/><path class="cls-4" d="M258.65,191.66a1.84,1.84,0,0,1-1.4-.43,2.15,2.15,0,0,1-.79-1.21l-1.5-6.15a14,14,0,0,0-.49-1.65,4.45,4.45,0,0,0-.69-1.28,2.66,2.66,0,0,0-1-.77,2.76,2.76,0,0,0-1.44-.18,4.14,4.14,0,0,0-1.42.41,2.84,2.84,0,0,0-1,.77l2.26,9.29a1.93,1.93,0,0,1-.16,1.33,1.29,1.29,0,0,1-1.12.73,1.74,1.74,0,0,1-1.43-.48,2.44,2.44,0,0,1-.77-1.24l-2.83-11.66a1.69,1.69,0,0,1,.17-1.45,1.55,1.55,0,0,1,1.17-.62,1.75,1.75,0,0,1,1,.17,1.8,1.8,0,0,1,.72.58A2.61,2.61,0,0,1,249,177a5.77,5.77,0,0,1,1.55-.37,6.44,6.44,0,0,1,5,1.35,8.82,8.82,0,0,1,2.66,4.74l1.69,7a1.71,1.71,0,0,1-.17,1.3A1.35,1.35,0,0,1,258.65,191.66Z"/><path class="cls-4" d="M272.92,198.64l-.45,0-.27,0a1.86,1.86,0,0,1-1.23-.29,1.93,1.93,0,0,1-.79-1.09,1.34,1.34,0,0,1,.19-1.42,2.57,2.57,0,0,1,1.36-.67,1.91,1.91,0,0,0,1-.44,2.47,2.47,0,0,0,.69-1,4.34,4.34,0,0,0,.29-1.46,6.75,6.75,0,0,0-.23-1.94l-3.39-14a1.65,1.65,0,0,1,.23-1.44,1.51,1.51,0,0,1,1.13-.66,2.06,2.06,0,0,1,1.36.41,2.17,2.17,0,0,1,.91,1.33l3.43,14.15a10.85,10.85,0,0,1,.33,3.2,6.57,6.57,0,0,1-.64,2.57,4.56,4.56,0,0,1-1.53,1.78A5.06,5.06,0,0,1,272.92,198.64Zm-.24-28.85a1.91,1.91,0,0,1-.27,1.66,1.89,1.89,0,0,1-1.46.81,2.52,2.52,0,0,1-1.78-.49,2.64,2.64,0,0,1-1.05-1.53,2,2,0,0,1,.28-1.66,1.89,1.89,0,0,1,1.46-.81,2.52,2.52,0,0,1,1.78.49A2.58,2.58,0,0,1,272.68,169.79Z"/><path class="cls-4" d="M293.89,180a1.33,1.33,0,0,1,0,.82,1.36,1.36,0,0,1-.39.58,2.23,2.23,0,0,1-1.27.55l-8.67.85a5.88,5.88,0,0,0,1.1,1.43,6.26,6.26,0,0,0,1.23.88,4.36,4.36,0,0,0,1.19.42,3.43,3.43,0,0,0,1,.07,9.18,9.18,0,0,0,1.33-.22,7.15,7.15,0,0,0,1.21-.46l.31-.07a2.43,2.43,0,0,1,.31,0,1.77,1.77,0,0,1,1.16.28,1.69,1.69,0,0,1,.7,1,1.92,1.92,0,0,1,0,.79,1.38,1.38,0,0,1-.76.86,7,7,0,0,1-1.39.55,12.92,12.92,0,0,1-2.34.4,8,8,0,0,1-3.09-.3,8.7,8.7,0,0,1-2.71-1.39,9.15,9.15,0,0,1-2.11-2.23,8.73,8.73,0,0,1-1.26-2.84,8.45,8.45,0,0,1-.19-3.07,6.8,6.8,0,0,1,.91-2.71,6,6,0,0,1,1.95-2,6.63,6.63,0,0,1,2.92-.95,7.71,7.71,0,0,1,5.72,1.66,9,9,0,0,1,2,2.24A9.87,9.87,0,0,1,293.89,180Zm-3.62-1a4.91,4.91,0,0,0-.69-1.08,4.48,4.48,0,0,0-1-.92,4.7,4.7,0,0,0-1.27-.57,4.19,4.19,0,0,0-1.47-.11,4,4,0,0,0-1.49.42,3.49,3.49,0,0,0-1,.8,2.9,2.9,0,0,0-.57,1.05,4.49,4.49,0,0,0-.2,1.17Z"/><path class="cls-4" d="M314.62,186.13a7.84,7.84,0,0,1-3-.29,8.77,8.77,0,0,1-2.69-1.37,8.93,8.93,0,0,1-2.1-2.3,9.93,9.93,0,0,1-1.3-3,8.68,8.68,0,0,1-.21-3.17,6.15,6.15,0,0,1,.91-2.62,5.61,5.61,0,0,1,1.91-1.84,6.41,6.41,0,0,1,2.73-.86,7.54,7.54,0,0,1,3,.29,8.31,8.31,0,0,1,2.67,1.39,9.43,9.43,0,0,1,2.11,2.32,9.74,9.74,0,0,1,1.31,3.06,8.45,8.45,0,0,1,.22,3.16,6,6,0,0,1-.93,2.59,5.74,5.74,0,0,1-1.9,1.83A6.5,6.5,0,0,1,314.62,186.13Zm-3-12.28a3.15,3.15,0,0,0-1.48.51,2.89,2.89,0,0,0-.93,1.09,4.16,4.16,0,0,0-.39,1.56,6.3,6.3,0,0,0,.18,1.89,5.76,5.76,0,0,0,1.8,3.12,3.9,3.9,0,0,0,3,.94,2.88,2.88,0,0,0,2.43-1.48,4.46,4.46,0,0,0,.24-3.32,6.7,6.7,0,0,0-.71-1.81,5.75,5.75,0,0,0-1.13-1.42,4.33,4.33,0,0,0-1.43-.87A3.5,3.5,0,0,0,311.64,173.85Z"/><path class="cls-4" d="M330.41,172.09l-.48-.08a3.1,3.1,0,0,0-.61,0,2.9,2.9,0,0,0-1.07.34,3.35,3.35,0,0,0-.95.73,4.57,4.57,0,0,0-.69,1,2.5,2.5,0,0,0-.24,1.21l1.81,7.45a1.87,1.87,0,0,1-.18,1.44,1.38,1.38,0,0,1-1.14.72,1.94,1.94,0,0,1-1.45-.46,2.41,2.41,0,0,1-.86-1.34l-2.82-11.6a2,2,0,0,1,0-.93A1.45,1.45,0,0,1,322,170a1.63,1.63,0,0,1,.54-.37,2.36,2.36,0,0,1,.61-.15,2.28,2.28,0,0,1,1.08.18,1.74,1.74,0,0,1,.83.84,4.3,4.3,0,0,1,1.91-1.32,9.18,9.18,0,0,1,1.73-.37,4.39,4.39,0,0,1,1.2,0,7.09,7.09,0,0,1,1,.23,2.42,2.42,0,0,1,1.37,1,1.45,1.45,0,0,1,.22,1.14,1.34,1.34,0,0,1-.7.84A1.89,1.89,0,0,1,330.41,172.09Z"/><path class="cls-4" d="M350.08,174.42a1.42,1.42,0,0,1,0,.82,1.47,1.47,0,0,1-.4.58,2.1,2.1,0,0,1-.6.38,2.3,2.3,0,0,1-.66.17l-8.67.86a6,6,0,0,0,1.09,1.42,6.26,6.26,0,0,0,1.23.88,4.36,4.36,0,0,0,1.19.42,3.43,3.43,0,0,0,1,.07,9.18,9.18,0,0,0,1.33-.22,7.15,7.15,0,0,0,1.21-.46l.31-.07.31-.05a1.75,1.75,0,0,1,1.16.28,1.69,1.69,0,0,1,.7,1.05,1.92,1.92,0,0,1,0,.79,1.38,1.38,0,0,1-.76.86,7,7,0,0,1-1.39.55,12.92,12.92,0,0,1-2.34.4,8,8,0,0,1-3.09-.3,8.7,8.7,0,0,1-2.71-1.39,9.15,9.15,0,0,1-2.11-2.23,8.64,8.64,0,0,1-1.26-2.84,8.45,8.45,0,0,1-.19-3.07,7,7,0,0,1,.91-2.71,5.94,5.94,0,0,1,2-2,6.55,6.55,0,0,1,2.91-1,7.81,7.81,0,0,1,3.11.28,7.6,7.6,0,0,1,2.61,1.38,8.69,8.69,0,0,1,2,2.25A9.7,9.7,0,0,1,350.08,174.42Zm-3.61-1a4.62,4.62,0,0,0-.7-1.08,4.48,4.48,0,0,0-1-.92,4.7,4.7,0,0,0-1.27-.57,4.19,4.19,0,0,0-1.47-.11,3.91,3.91,0,0,0-1.48.42,3.41,3.41,0,0,0-1,.8A3,3,0,0,0,339,173a4.46,4.46,0,0,0-.19,1.17Z"/><path class="cls-4" d="M365.72,181.08a1.87,1.87,0,0,1-1.4-.42,2.24,2.24,0,0,1-.79-1.21L362,173.3c-.15-.59-.31-1.14-.49-1.65a4.57,4.57,0,0,0-.7-1.28,2.59,2.59,0,0,0-1-.78,2.87,2.87,0,0,0-1.44-.17,3.93,3.93,0,0,0-1.42.41,2.83,2.83,0,0,0-1,.76l2.26,9.29a2,2,0,0,1-.15,1.34A1.32,1.32,0,0,1,357,182a1.77,1.77,0,0,1-1.42-.48,2.5,2.5,0,0,1-.78-1.24l-2.83-11.66a1.69,1.69,0,0,1,.17-1.45,1.55,1.55,0,0,1,1.17-.62,1.84,1.84,0,0,1,1,.16,2,2,0,0,1,.73.58,2.72,2.72,0,0,1,1.13-.81,5.6,5.6,0,0,1,1.54-.36,6.36,6.36,0,0,1,5,1.35,8.73,8.73,0,0,1,2.66,4.73l1.69,7a1.71,1.71,0,0,1-.16,1.3A1.35,1.35,0,0,1,365.72,181.08Z"/><path class="cls-4" d="M374.27,178.51a2,2,0,0,1-.27,1.66,2,2,0,0,1-1.46.82,2.72,2.72,0,0,1-2.83-2,1.92,1.92,0,0,1,1.74-2.44,2.52,2.52,0,0,1,1.78.49A2.57,2.57,0,0,1,374.27,178.51Z"/><path class="cls-5" d="M89.47,204a3.18,3.18,0,0,1,.4,1.05,1.88,1.88,0,0,1,0,.92,1.3,1.3,0,0,1-.51.69,2,2,0,0,1-1,.33,1.76,1.76,0,0,1-1.4-.4,4.42,4.42,0,0,1-.88-1l-3.47-5.68-7,.69-1,6.46a2.66,2.66,0,0,1-.53,1,1.82,1.82,0,0,1-1.17.43,1.66,1.66,0,0,1-1.34-.46,2.25,2.25,0,0,1-.74-1.12,1.64,1.64,0,0,1,0-.42,1.09,1.09,0,0,0,0-.24c0-.11,0-.37.12-.8l.24-1.48c.1-.56.18-1.12.27-1.7s.16-1,.23-1.44a1.87,1.87,0,0,1-1.1-.63,2.59,2.59,0,0,1-.48-1,1.61,1.61,0,0,1,.22-1.34,1.93,1.93,0,0,1,1.49-.71l.51,0L74,186a3.53,3.53,0,0,1,.12-.58,2.46,2.46,0,0,1,.28-.59,1.69,1.69,0,0,1,.51-.48,2.24,2.24,0,0,1,.88-.25,2.18,2.18,0,0,1,1,.09,2.43,2.43,0,0,1,.75.39,3.29,3.29,0,0,1,.55.57q.23.32.39.6Zm-8.67-7.36-3.72-6.2-1,6.67Z"/><path class="cls-6" d="M97.7,203.52a1.88,1.88,0,0,1,.5.95,1.65,1.65,0,0,1,0,.86,1.48,1.48,0,0,1-.45.67,1.37,1.37,0,0,1-.77.32,2.4,2.4,0,0,1-1.22-.18,4.79,4.79,0,0,1-1.21-.88,7,7,0,0,1-1.12-1.6,11.75,11.75,0,0,1-1-2.8l-3.91-16.12a1.55,1.55,0,0,1,0-.74,1.38,1.38,0,0,1,.3-.62,1.87,1.87,0,0,1,.49-.44,1.31,1.31,0,0,1,.61-.21,1.52,1.52,0,0,1,.69.08,3,3,0,0,1,.7.32,2.24,2.24,0,0,1,.57.54,1.87,1.87,0,0,1,.34.71L95.93,200a7.63,7.63,0,0,0,.88,2.23A9,9,0,0,0,97.7,203.52Z"/><path class="cls-6" d="M113,199.79a4,4,0,0,1,0,2.43,3.6,3.6,0,0,1-1.19,1.6,5.35,5.35,0,0,1-1.9.93,12.13,12.13,0,0,1-2.15.41,13,13,0,0,1-1.47,0,11.86,11.86,0,0,1-1.94-.21,6.25,6.25,0,0,1-1.78-.62,1.78,1.78,0,0,1-1-1.16,1.58,1.58,0,0,1,.13-1.05,1.08,1.08,0,0,1,.94-.63,2.78,2.78,0,0,1,1.15.12c.36.11.76.22,1.2.32a4.92,4.92,0,0,0,.92.12,6.31,6.31,0,0,0,1.07,0,9.2,9.2,0,0,0,.92-.13,3.74,3.74,0,0,0,.91-.3,1.79,1.79,0,0,0,.64-.54,1,1,0,0,0,.1-.85,1.54,1.54,0,0,0-.54-.89,2.21,2.21,0,0,0-.91-.4,5.59,5.59,0,0,0-1.1-.08h-1.1a18.18,18.18,0,0,1-2.07-.11,6.82,6.82,0,0,1-2-.56,5,5,0,0,1-1.67-1.25,4.82,4.82,0,0,1-1-2.14,3.51,3.51,0,0,1,1.16-3.76,5.49,5.49,0,0,1,1.74-1,8.77,8.77,0,0,1,2-.43,9.48,9.48,0,0,1,1.51,0,7.71,7.71,0,0,1,1.68.34,6.4,6.4,0,0,1,1.59.75,4.38,4.38,0,0,1,1.28,1.22,2.12,2.12,0,0,1,.33.72,1,1,0,0,1-.2,1,1.44,1.44,0,0,1-1,.44,1.4,1.4,0,0,1-1-.19l-.75-.56a3.86,3.86,0,0,0-1-.54,4,4,0,0,0-1.71-.12,5.29,5.29,0,0,0-.79.14,3.09,3.09,0,0,0-.79.3,1.42,1.42,0,0,0-.53.53,1,1,0,0,0-.07.79,1.29,1.29,0,0,0,.46.74,2.09,2.09,0,0,0,.79.39,3.56,3.56,0,0,0,.94.15c.33,0,.66,0,1,0a20.6,20.6,0,0,1,2.14.11,8.14,8.14,0,0,1,2.19.52,5.57,5.57,0,0,1,1.86,1.24A4.68,4.68,0,0,1,113,199.79Z"/><path class="cls-6" d="M130.79,194.92l5.88,4.26a2.38,2.38,0,0,1,1,1.36,1.37,1.37,0,0,1-.21,1.2,1.51,1.51,0,0,1-1,.6,2,2,0,0,1-1.5-.47l-6.41-4.64.92,3.79a2.16,2.16,0,0,1-.15,1.39,1.28,1.28,0,0,1-1.12.7,1.82,1.82,0,0,1-1.4-.45,2.33,2.33,0,0,1-.81-1.3l-4.81-19.82a1.69,1.69,0,0,1,.18-1.35,1.39,1.39,0,0,1,1.11-.66,1.87,1.87,0,0,1,1.39.41,2.26,2.26,0,0,1,.8,1.26l2.73,11.27.49.34,3.78-5.43a1.57,1.57,0,0,1,1.22-.77,1.94,1.94,0,0,1,1.26.38,1.8,1.8,0,0,1,.75,1.06,1.62,1.62,0,0,1-.27,1.4Z"/><path class="cls-6" d="M146,198.74a2.07,2.07,0,0,1,.51.95,1.67,1.67,0,0,1-.06.87,1.53,1.53,0,0,1-.45.67,1.37,1.37,0,0,1-.76.32,2.34,2.34,0,0,1-1.23-.19,4.48,4.48,0,0,1-1.21-.88,6.49,6.49,0,0,1-1.11-1.6,11.09,11.09,0,0,1-1-2.79L136.77,180a1.68,1.68,0,0,1,0-.74,1.44,1.44,0,0,1,.3-.62,1.91,1.91,0,0,1,.49-.45,1.43,1.43,0,0,1,.61-.21,1.69,1.69,0,0,1,.69.09,2.61,2.61,0,0,1,.7.32,2.21,2.21,0,0,1,.57.53,1.86,1.86,0,0,1,.34.71l3.8,15.65a7.8,7.8,0,0,0,.88,2.23A9,9,0,0,0,146,198.74Z"/><path class="cls-5" d="M162.07,199.92a2.17,2.17,0,0,1-1.71-.59,7.55,7.55,0,0,1-1.34.55,6.3,6.3,0,0,1-1.39.32,9.24,9.24,0,0,1-3.29-.23,8.65,8.65,0,0,1-5.05-3.53,9.36,9.36,0,0,1-1.34-3.07,8.44,8.44,0,0,1-.19-3.17,6.43,6.43,0,0,1,1-2.66,6,6,0,0,1,2.08-1.9,7.64,7.64,0,0,1,3-.91,5.5,5.5,0,0,1,1.17.05,3.86,3.86,0,0,1,1.2.35,1.26,1.26,0,0,1,1.1-.8,1.7,1.7,0,0,1,1.38.38,2.42,2.42,0,0,1,.7,1.23l1.94,8a10.43,10.43,0,0,0,.42,1.27,4.92,4.92,0,0,0,.67,1.2c.19.26.38.51.57.74a2.14,2.14,0,0,1,.4.83,1.58,1.58,0,0,1-1.35,1.92Zm-3.82-4.5-1.77-7.28a6.34,6.34,0,0,0-.93-.21,3.87,3.87,0,0,0-.88,0,4.39,4.39,0,0,0-1.73.52,3.51,3.51,0,0,0-1.2,1.09,3.72,3.72,0,0,0-.58,1.53,4.62,4.62,0,0,0,.11,1.83,5.52,5.52,0,0,0,.77,1.79,5.78,5.78,0,0,0,1.27,1.38,5.08,5.08,0,0,0,1.66.83,5.15,5.15,0,0,0,1.92.18,4.07,4.07,0,0,0,.89-.2,7.92,7.92,0,0,0,.85-.34,5.72,5.72,0,0,1-.22-.55A4,4,0,0,1,158.25,195.42Z"/><path class="cls-7" d="M177.71,198.22a1.87,1.87,0,0,1-1.4-.42,2.18,2.18,0,0,1-.79-1.21L174,190.44a14.72,14.72,0,0,0-.5-1.65,4.32,4.32,0,0,0-.69-1.28,2.59,2.59,0,0,0-1-.78,3,3,0,0,0-1.44-.18A4,4,0,0,0,169,187a2.83,2.83,0,0,0-1,.76l2.26,9.29a1.87,1.87,0,0,1-.16,1.33,1.3,1.3,0,0,1-1.12.74,1.81,1.81,0,0,1-1.43-.48,2.55,2.55,0,0,1-.77-1.24l-2.83-11.66a1.72,1.72,0,0,1,.17-1.46,1.54,1.54,0,0,1,1.17-.61,1.75,1.75,0,0,1,1,.16,1.89,1.89,0,0,1,.72.58,2.85,2.85,0,0,1,1.13-.81,5.77,5.77,0,0,1,1.55-.36,6.36,6.36,0,0,1,5,1.35,8.75,8.75,0,0,1,2.66,4.73l1.69,7a1.72,1.72,0,0,1-.17,1.3A1.32,1.32,0,0,1,177.71,198.22Z"/><path class="cls-7" d="M187.73,189.3l5.88,4.26a2.39,2.39,0,0,1,1,1.35,1.39,1.39,0,0,1-.21,1.21,1.55,1.55,0,0,1-1,.6,2,2,0,0,1-1.5-.47l-6.41-4.64.92,3.79a2.11,2.11,0,0,1-.15,1.39,1.3,1.3,0,0,1-1.12.7,1.82,1.82,0,0,1-1.4-.45,2.46,2.46,0,0,1-.81-1.3l-4.81-19.82a1.71,1.71,0,0,1,.18-1.35,1.4,1.4,0,0,1,1.12-.66,1.85,1.85,0,0,1,1.38.41,2.18,2.18,0,0,1,.8,1.25l2.74,11.28.48.34,3.78-5.43a1.55,1.55,0,0,1,1.23-.77,2,2,0,0,1,1.25.37,1.83,1.83,0,0,1,.75,1.06,1.61,1.61,0,0,1-.27,1.41Z"/><path class="cls-5" d="M209.8,186.84a1.41,1.41,0,0,1,0,.82,1.51,1.51,0,0,1-.4.59,2.07,2.07,0,0,1-.6.37,2,2,0,0,1-.66.17l-8.67.86a5.39,5.39,0,0,0,1.09,1.42,5.53,5.53,0,0,0,1.23.88,4.41,4.41,0,0,0,1.19.43,3.75,3.75,0,0,0,1,.06,6.88,6.88,0,0,0,2.54-.67l.31-.08.31,0a1.75,1.75,0,0,1,1.16.28,1.64,1.64,0,0,1,.7,1,1.92,1.92,0,0,1,0,.79,1.41,1.41,0,0,1-.76.86,7,7,0,0,1-1.39.55,13.06,13.06,0,0,1-2.34.39,7.66,7.66,0,0,1-3.09-.3,8.47,8.47,0,0,1-2.71-1.38,9.33,9.33,0,0,1-2.11-2.23,8.69,8.69,0,0,1-1.26-2.85,8.43,8.43,0,0,1-.19-3.07,7,7,0,0,1,.91-2.71,5.92,5.92,0,0,1,2-2,6.43,6.43,0,0,1,2.91-1,7.81,7.81,0,0,1,3.11.29,7.28,7.28,0,0,1,2.61,1.38,8.81,8.81,0,0,1,2,2.24A9.93,9.93,0,0,1,209.8,186.84Zm-3.61-1a5.27,5.27,0,0,0-.7-1.09,4.52,4.52,0,0,0-2.29-1.48,4,4,0,0,0-1.47-.11,3.58,3.58,0,0,0-1.48.42,3.38,3.38,0,0,0-1,.79,2.94,2.94,0,0,0-.57,1.06,4.33,4.33,0,0,0-.19,1.17Z"/><path class="cls-6" d="M225.44,193.51a1.87,1.87,0,0,1-1.4-.42,2.27,2.27,0,0,1-.79-1.21l-1.49-6.16c-.15-.59-.31-1.14-.49-1.65a4.51,4.51,0,0,0-.7-1.27,2.59,2.59,0,0,0-1-.78,2.86,2.86,0,0,0-1.44-.18,4.14,4.14,0,0,0-1.42.41,3,3,0,0,0-1,.77l2.26,9.29a1.92,1.92,0,0,1-.15,1.33,1.3,1.3,0,0,1-1.13.73,1.71,1.71,0,0,1-1.42-.48,2.42,2.42,0,0,1-.78-1.24L211.64,181a1.71,1.71,0,0,1,.17-1.46,1.58,1.58,0,0,1,1.17-.62,1.85,1.85,0,0,1,1,.17,1.9,1.9,0,0,1,.73.58,2.72,2.72,0,0,1,1.13-.81,5.61,5.61,0,0,1,1.54-.37,6.43,6.43,0,0,1,5,1.35,8.76,8.76,0,0,1,2.66,4.74l1.69,6.95a1.74,1.74,0,0,1-.16,1.31A1.37,1.37,0,0,1,225.44,193.51Z"/><path class="cls-5" d="M239.9,171.6a1.95,1.95,0,0,1-1.74,2.48,2.7,2.7,0,0,1-2.82-2,1.92,1.92,0,0,1,.27-1.66,1.89,1.89,0,0,1,1.46-.81,2.57,2.57,0,0,1,1.78.49A2.64,2.64,0,0,1,239.9,171.6Zm1.06,6.17,2.85,11.86a1.88,1.88,0,0,1-.2,1.45,1.42,1.42,0,0,1-1.14.75,1.92,1.92,0,0,1-1.44-.5,2.51,2.51,0,0,1-.88-1.33l-2.91-11.87a1.43,1.43,0,0,1,0-.74,1.67,1.67,0,0,1,.3-.63,1.72,1.72,0,0,1,.51-.46,1.36,1.36,0,0,1,.59-.21,1.83,1.83,0,0,1,.67.08,2.77,2.77,0,0,1,.69.34,3.11,3.11,0,0,1,.6.55A1.82,1.82,0,0,1,241,177.77Z"/><path class="cls-6" d="M259.34,190.16a1.87,1.87,0,0,1-1.4-.42,2.27,2.27,0,0,1-.79-1.21l-1.49-6.16c-.15-.59-.31-1.14-.49-1.64a4.44,4.44,0,0,0-.7-1.28,2.59,2.59,0,0,0-1-.78,3,3,0,0,0-1.44-.18,4,4,0,0,0-1.42.42,2.78,2.78,0,0,0-1,.76l2.25,9.29a1.92,1.92,0,0,1-.15,1.33,1.32,1.32,0,0,1-1.13.74,1.77,1.77,0,0,1-1.42-.48,2.49,2.49,0,0,1-.78-1.25l-2.83-11.65a1.72,1.72,0,0,1,.17-1.46,1.54,1.54,0,0,1,1.17-.61,1.75,1.75,0,0,1,1,.16,2,2,0,0,1,.73.58,2.72,2.72,0,0,1,1.13-.81,5.27,5.27,0,0,1,1.54-.36,6.36,6.36,0,0,1,5,1.35,8.69,8.69,0,0,1,2.66,4.73l1.69,7a1.74,1.74,0,0,1-.16,1.31A1.37,1.37,0,0,1,259.34,190.16Z"/><path class="cls-6" d="M273.62,197.14l-.45.05-.27,0a1.89,1.89,0,0,1-1.24-.28,2,2,0,0,1-.79-1.09,1.35,1.35,0,0,1,.2-1.43,2.53,2.53,0,0,1,1.36-.66,2,2,0,0,0,1-.45,2.47,2.47,0,0,0,.69-1,4.1,4.1,0,0,0,.29-1.45,7.1,7.1,0,0,0-.22-1.95l-3.4-14a1.66,1.66,0,0,1,.23-1.45,1.59,1.59,0,0,1,1.13-.66,2.1,2.1,0,0,1,1.36.41,2.19,2.19,0,0,1,.91,1.34l3.43,14.14a10.59,10.59,0,0,1,.34,3.21,6.7,6.7,0,0,1-.64,2.56,4.83,4.83,0,0,1-1.53,1.79A5.14,5.14,0,0,1,273.62,197.14Zm-.24-28.84a2,2,0,0,1-.28,1.66,1.89,1.89,0,0,1-1.46.81,2.68,2.68,0,0,1-2.82-2,1.92,1.92,0,0,1,1.73-2.48,2.57,2.57,0,0,1,1.78.49A2.63,2.63,0,0,1,273.38,168.3Z"/><path class="cls-5" d="M294.58,178.47a1.33,1.33,0,0,1,0,.82,1.41,1.41,0,0,1-.4.58,1.86,1.86,0,0,1-.6.38,2.3,2.3,0,0,1-.66.17l-8.67.86a5.77,5.77,0,0,0,2.32,2.3,4.7,4.7,0,0,0,1.2.43,3.73,3.73,0,0,0,1,.06,7.85,7.85,0,0,0,1.32-.22,8.5,8.5,0,0,0,1.22-.45,1.26,1.26,0,0,1,.3-.08,2.39,2.39,0,0,1,.31,0,1.75,1.75,0,0,1,1.16.27,1.65,1.65,0,0,1,.7,1.06,1.92,1.92,0,0,1,0,.79,1.43,1.43,0,0,1-.76.86,7.22,7.22,0,0,1-1.38.54,13.22,13.22,0,0,1-2.35.4,7.59,7.59,0,0,1-3.08-.3,8.62,8.62,0,0,1-2.72-1.38,9.33,9.33,0,0,1-2.11-2.23,8.78,8.78,0,0,1-1.45-5.92,7,7,0,0,1,.91-2.71,5.92,5.92,0,0,1,2-2,6.44,6.44,0,0,1,2.92-1,8,8,0,0,1,3.11.28,7.65,7.65,0,0,1,2.6,1.38,8.69,8.69,0,0,1,2,2.25A9.44,9.44,0,0,1,294.58,178.47Zm-3.61-1a5.43,5.43,0,0,0-.69-1.08,4.89,4.89,0,0,0-1-.91,4.21,4.21,0,0,0-1.28-.57,4.23,4.23,0,0,0-3,.3,3.72,3.72,0,0,0-1,.8,2.94,2.94,0,0,0-.57,1.06,4.33,4.33,0,0,0-.19,1.17Z"/><path class="cls-5" d="M315.31,184.63a7.47,7.47,0,0,1-3-.29,8.51,8.51,0,0,1-2.68-1.37,8.91,8.91,0,0,1-2.11-2.29,9.78,9.78,0,0,1-1.29-3.05,8.54,8.54,0,0,1-.22-3.18,6.39,6.39,0,0,1,.91-2.62,5.8,5.8,0,0,1,1.91-1.84,6.5,6.5,0,0,1,2.74-.86,7.84,7.84,0,0,1,3,.29,8.31,8.31,0,0,1,2.67,1.39,9.65,9.65,0,0,1,2.12,2.32,9.93,9.93,0,0,1,1.31,3.07,8.64,8.64,0,0,1,.21,3.16A6.26,6.26,0,0,1,320,182a5.84,5.84,0,0,1-1.91,1.82A6.5,6.5,0,0,1,315.31,184.63Zm-3-12.27a3,3,0,0,0-1.47.5,2.86,2.86,0,0,0-.94,1.1,4.06,4.06,0,0,0-.39,1.55,6,6,0,0,0,.19,1.89,5.64,5.64,0,0,0,1.8,3.12,3.88,3.88,0,0,0,3,.95A3,3,0,0,0,317,180a4.59,4.59,0,0,0,.24-3.33,7,7,0,0,0-.72-1.81,5.89,5.89,0,0,0-1.13-1.42,4.39,4.39,0,0,0-1.42-.87A3.56,3.56,0,0,0,312.33,172.36Z"/><path class="cls-6" d="M331.1,170.59l-.47-.07a3.21,3.21,0,0,0-.62,0,2.71,2.71,0,0,0-1.07.33,3.5,3.5,0,0,0-.94.73,4,4,0,0,0-.69,1,2.42,2.42,0,0,0-.25,1.21l1.81,7.45a1.94,1.94,0,0,1-.17,1.45,1.42,1.42,0,0,1-1.15.71,1.91,1.91,0,0,1-1.45-.46,2.43,2.43,0,0,1-.86-1.34L322.43,170a1.94,1.94,0,0,1-.05-.94,1.37,1.37,0,0,1,.33-.62,1.34,1.34,0,0,1,.54-.37,2.27,2.27,0,0,1,.61-.15,2,2,0,0,1,1.07.18,1.62,1.62,0,0,1,.83.84,4.3,4.3,0,0,1,1.91-1.33,10,10,0,0,1,1.74-.36,4.74,4.74,0,0,1,1.19,0,7.09,7.09,0,0,1,1,.23,2.5,2.5,0,0,1,1.38,1,1.45,1.45,0,0,1,.21,1.15,1.39,1.39,0,0,1-.7.84A1.84,1.84,0,0,1,331.1,170.59Z"/><path class="cls-5" d="M350.78,172.92a1.41,1.41,0,0,1,0,.82,1.49,1.49,0,0,1-.39.58,2.1,2.1,0,0,1-.6.38,2.13,2.13,0,0,1-.67.17l-8.67.86a5.58,5.58,0,0,0,1.1,1.42,5.48,5.48,0,0,0,1.22.88,4.7,4.7,0,0,0,1.2.43,3.73,3.73,0,0,0,1,.06,8.17,8.17,0,0,0,1.33-.22,8.42,8.42,0,0,0,1.21-.45,2,2,0,0,1,.3-.08,2.39,2.39,0,0,1,.31,0,1.7,1.7,0,0,1,1.16.28,1.6,1.6,0,0,1,.7,1.05,1.76,1.76,0,0,1,0,.79,1.41,1.41,0,0,1-.75.86,7,7,0,0,1-1.39.54,13.22,13.22,0,0,1-2.35.4,7.59,7.59,0,0,1-3.08-.3,8.73,8.73,0,0,1-2.72-1.38,9.54,9.54,0,0,1-2.11-2.23,8.93,8.93,0,0,1-1.45-5.92,7,7,0,0,1,.91-2.71,6,6,0,0,1,2-2,6.48,6.48,0,0,1,2.92-1,7.83,7.83,0,0,1,3.11.29,7.59,7.59,0,0,1,2.61,1.37,9,9,0,0,1,1.95,2.25A10,10,0,0,1,350.78,172.92Zm-3.62-1a5.21,5.21,0,0,0-.69-1.09,4.44,4.44,0,0,0-1-.91,4.21,4.21,0,0,0-1.28-.57,4.38,4.38,0,0,0-2.95.3,3.52,3.52,0,0,0-1,.8,2.82,2.82,0,0,0-.58,1.06,4.33,4.33,0,0,0-.19,1.17Z"/><path class="cls-6" d="M366.42,179.59a1.85,1.85,0,0,1-1.41-.43,2.21,2.21,0,0,1-.79-1.2l-1.49-6.16a16.16,16.16,0,0,0-.49-1.65,4.72,4.72,0,0,0-.7-1.28,2.55,2.55,0,0,0-1-.77,2.76,2.76,0,0,0-1.44-.18,4.08,4.08,0,0,0-1.42.41,2.84,2.84,0,0,0-1,.77l2.25,9.29a1.92,1.92,0,0,1-.15,1.33,1.28,1.28,0,0,1-1.13.73,1.72,1.72,0,0,1-1.42-.48,2.42,2.42,0,0,1-.78-1.24l-2.83-11.66a1.73,1.73,0,0,1,.17-1.45A1.58,1.58,0,0,1,354,165a1.91,1.91,0,0,1,1.69.75,2.72,2.72,0,0,1,1.13-.81,5.7,5.7,0,0,1,1.54-.37,6.47,6.47,0,0,1,5.05,1.35,8.88,8.88,0,0,1,2.66,4.74l1.68,7a1.71,1.71,0,0,1-.16,1.3A1.36,1.36,0,0,1,366.42,179.59Z"/><path class="cls-6" d="M375,177a1.92,1.92,0,0,1-.27,1.66,1.89,1.89,0,0,1-1.46.81,2.57,2.57,0,0,1-1.78-.49,2.64,2.64,0,0,1-1.05-1.53,2,2,0,0,1,.28-1.64,2,2,0,0,1,1.47-.81,2.68,2.68,0,0,1,2.81,2Z"/></g></g></svg>