<svg xmlns="http://www.w3.org/2000/svg" viewBox="0 0 262.53 68.72"><defs><style>.cls-1{stroke:#000;}.cls-1,.cls-2,.cls-3{stroke-miterlimit:10;stroke-width:4px;}.cls-2,.cls-3{fill:#fff;}.cls-2{stroke:#4fa0ca;}.cls-3{stroke:#41aa54;}</style></defs><g id="Layer_2" data-name="Layer 2"><g id="Layer_1-2" data-name="Layer 1"><path class="cls-1" d="M48.17,47.52A17.12,17.12,0,0,1,46,56.35a17.94,17.94,0,0,1-5.54,5.91,24,24,0,0,1-7.62,3.32,33.94,33.94,0,0,1-8.34,1.06c-1.46,0-3-.06-4.66-.16a33.25,33.25,0,0,1-5-.73A27.88,27.88,0,0,1,10,64.17a17.41,17.41,0,0,1-4.29-2.63A13.53,13.53,0,0,1,4,59.59a4,4,0,0,1-.85-2.43,6,6,0,0,1,.33-1.94,5.7,5.7,0,0,1,1-1.83A5.51,5.51,0,0,1,6.13,52a4.7,4.7,0,0,1,2.27-.53,3.82,3.82,0,0,1,1.66.28l1.42.77a28.6,28.6,0,0,0,6.15,2.8,23.13,23.13,0,0,0,6.64.85,19.81,19.81,0,0,0,4.7-.57A16.75,16.75,0,0,0,33.23,54a9.53,9.53,0,0,0,3.07-2.63,6,6,0,0,0,1.18-3.69,5.23,5.23,0,0,0-1.7-4,12.87,12.87,0,0,0-4.09-2.43,28.57,28.57,0,0,0-4.94-1.33c-1.71-.3-3.15-.53-4.34-.69a43.39,43.39,0,0,1-6.84-1.66A24.45,24.45,0,0,1,8.93,34.2a17.36,17.36,0,0,1-5-5.47A16,16,0,0,1,2,20.55a18.32,18.32,0,0,1,1.82-8.47A16.62,16.62,0,0,1,8.64,6.33a20.63,20.63,0,0,1,6.89-3.28,30.58,30.58,0,0,1,8-1,24.81,24.81,0,0,1,8.91,1.54,25.29,25.29,0,0,1,7,3.89A18.28,18.28,0,0,1,44,12.61,10.84,10.84,0,0,1,45.58,18a4.64,4.64,0,0,1-1.38,3.56A5.15,5.15,0,0,1,41.08,23a6.07,6.07,0,0,1-3.48-.77A5.22,5.22,0,0,1,35.13,19,6.31,6.31,0,0,0,34,17.19,13.63,13.63,0,0,0,31.65,15a14.28,14.28,0,0,0-3.45-1.86,11.94,11.94,0,0,0-4.41-.77,17.65,17.65,0,0,0-4.17.48,10.94,10.94,0,0,0-3.49,1.5,7.31,7.31,0,0,0-2.34,2.55,7.43,7.43,0,0,0-.85,3.65,5.84,5.84,0,0,0,1.53,4.25,10.75,10.75,0,0,0,3.77,2.47,21,21,0,0,0,4.66,1.26q2.43.36,4.29.6A51.22,51.22,0,0,1,35.7,31a21,21,0,0,1,6.64,3.44,15.27,15.27,0,0,1,4.29,5.39A17.43,17.43,0,0,1,48.17,47.52Z"/><path class="cls-1" d="M103.57,8.32A4.81,4.81,0,0,1,102,12a5.22,5.22,0,0,1-3.68,1.46H83.89V61.37a5.27,5.27,0,1,1-10.53,0V13.5H58.86A5.22,5.22,0,0,1,55.18,12,4.81,4.81,0,0,1,53.6,8.32a5,5,0,0,1,1.54-3.65,5.07,5.07,0,0,1,3.72-1.54H98.31A5.13,5.13,0,0,1,102,4.67,4.9,4.9,0,0,1,103.57,8.32Z"/><path class="cls-1" d="M149.18,58.86a8.29,8.29,0,0,1,.4,2.92,5.58,5.58,0,0,1-.69,2.47,4.18,4.18,0,0,1-1.78,1.7,6,6,0,0,1-2.79.61,4.1,4.1,0,0,1-3.45-1.42,11.33,11.33,0,0,1-1.66-3l-5.5-16.12h-18.8l-6.88,17A8.42,8.42,0,0,1,106,65.71a5.5,5.5,0,0,1-3.36.85A3.89,3.89,0,0,1,99.36,65a5.23,5.23,0,0,1-1.21-3.2,3.61,3.61,0,0,1,.16-1.14,2.53,2.53,0,0,0,.16-.64c.11-.27.39-1,.85-2.11L100.9,54c.59-1.46,1.19-2.94,1.78-4.45s1.11-2.78,1.54-3.81a4.06,4.06,0,0,1-2.51-2,6.17,6.17,0,0,1-.65-2.71,4.89,4.89,0,0,1,1.46-3.52,5.83,5.83,0,0,1,4.37-1.5h1.38l11.67-29.4a9.57,9.57,0,0,1,.68-1.54,7.23,7.23,0,0,1,1.1-1.5,4.82,4.82,0,0,1,1.66-1.13A6.06,6.06,0,0,1,125.85,2a5.83,5.83,0,0,1,2.55.49,5.4,5.4,0,0,1,1.7,1.25,6.7,6.7,0,0,1,1.09,1.66,13.57,13.57,0,0,1,.65,1.7ZM131,36.91,125.2,19.33l-6.88,17.58Z"/><path class="cls-1" d="M201.34,58.13a6.69,6.69,0,0,1,1.25,2.11,4.23,4.23,0,0,1,.25,2,5.15,5.15,0,0,1-.57,1.78,4.79,4.79,0,0,1-1.09,1.42,4.22,4.22,0,0,1-2.06,1.1,5.1,5.1,0,0,1-2.1,0,6.53,6.53,0,0,1-1.9-.81,6.74,6.74,0,0,1-1.46-1.22l-18.5-22.11c-1,0-2.06,0-3.11,0a20.1,20.1,0,0,1-3.27-.37V61.29a5.36,5.36,0,0,1-1.47,3.77,4.83,4.83,0,0,1-3.67,1.58h-.25a4.81,4.81,0,0,1-3.67-1.58,5.36,5.36,0,0,1-1.47-3.77V7.75a6.89,6.89,0,0,1,.56-3A4.93,4.93,0,0,1,160.19,3a4.66,4.66,0,0,1,1.7-.81,7.23,7.23,0,0,1,1.46-.2,4.68,4.68,0,0,1,1.9.45,3.94,3.94,0,0,1,1.66,1.33,20.43,20.43,0,0,1,3.73-1.21A17.81,17.81,0,0,1,174.77,2a33.57,33.57,0,0,1,9.8,1.42,27.08,27.08,0,0,1,8.3,4.05,20.15,20.15,0,0,1,5.76,6.44,17,17,0,0,1,2.14,8.5,18.26,18.26,0,0,1-1.21,6.89,17.94,17.94,0,0,1-3.2,5.22,18.87,18.87,0,0,1-4.54,3.73,24.58,24.58,0,0,1-5.14,2.31ZM190.4,22.41a8.34,8.34,0,0,0-1.73-5.55,11.23,11.23,0,0,0-4.24-3.12,18.34,18.34,0,0,0-5.16-1.33,43.77,43.77,0,0,0-4.52-.29,22.1,22.1,0,0,0-2.87.25,15.34,15.34,0,0,0-3.1.73V31.65a8.13,8.13,0,0,0,1.17.16c.62.05,1,.08,1.17.08a2.46,2.46,0,0,1,.68-1.66,4.15,4.15,0,0,1,1.78-1.14A4.73,4.73,0,0,1,176,29a4.44,4.44,0,0,1,2.42,1.46l1.45,1.62a19.41,19.41,0,0,0,3.84-.89,12,12,0,0,0,3.38-1.78,8.38,8.38,0,0,0,3.35-7Z"/><path class="cls-1" d="M256.42,8.32A4.84,4.84,0,0,1,254.84,12a5.22,5.22,0,0,1-3.69,1.46H236.74V61.37a5.27,5.27,0,1,1-10.53,0V13.5h-14.5A5.22,5.22,0,0,1,208,12a4.84,4.84,0,0,1-1.58-3.72A5,5,0,0,1,208,4.67a5.11,5.11,0,0,1,3.73-1.54h39.44a5.14,5.14,0,0,1,3.69,1.54A4.94,4.94,0,0,1,256.42,8.32Z"/><path class="cls-2" d="M52.28,47.6a17.11,17.11,0,0,1-2.14,8.83,17.87,17.87,0,0,1-5.55,5.91A24.22,24.22,0,0,1,37,65.67a34.28,34.28,0,0,1-8.34,1c-1.46,0-3-.06-4.66-.16a32.36,32.36,0,0,1-5-.73,28.44,28.44,0,0,1-4.86-1.58,17.79,17.79,0,0,1-4.29-2.63A12.93,12.93,0,0,1,8.1,59.67a3.93,3.93,0,0,1-.85-2.43,6,6,0,0,1,.32-1.94,5.74,5.74,0,0,1,1-1.82,5.52,5.52,0,0,1,1.66-1.38,4.73,4.73,0,0,1,2.27-.53,3.62,3.62,0,0,1,1.66.29l1.42.76a28.66,28.66,0,0,0,6.16,2.8,23.08,23.08,0,0,0,6.64.85,19.94,19.94,0,0,0,4.7-.57,16.45,16.45,0,0,0,4.25-1.62,9.56,9.56,0,0,0,3.08-2.63,6,6,0,0,0,1.17-3.69,5.23,5.23,0,0,0-1.7-4,12.56,12.56,0,0,0-4.09-2.42A27.49,27.49,0,0,0,30.86,40c-1.7-.3-3.15-.53-4.33-.69a42.17,42.17,0,0,1-6.85-1.66A24.59,24.59,0,0,1,13,34.28a17.11,17.11,0,0,1-5-5.47,15.9,15.9,0,0,1-1.95-8.18,18.13,18.13,0,0,1,1.83-8.46,16.45,16.45,0,0,1,4.82-5.76,20.48,20.48,0,0,1,6.88-3.28,30.64,30.64,0,0,1,8-1,24.81,24.81,0,0,1,8.91,1.54,25.5,25.5,0,0,1,7,3.89,18.4,18.4,0,0,1,4.53,5.18A10.84,10.84,0,0,1,49.69,18a4.64,4.64,0,0,1-1.38,3.56,5.1,5.1,0,0,1-3.11,1.46,6.08,6.08,0,0,1-3.49-.77,5.26,5.26,0,0,1-2.47-3.2,6.31,6.31,0,0,0-1.13-1.82,13.63,13.63,0,0,0-2.35-2.19,14.21,14.21,0,0,0-3.44-1.86,12.24,12.24,0,0,0-4.42-.77,17.14,17.14,0,0,0-4.17.49,10.74,10.74,0,0,0-3.48,1.49,7.07,7.07,0,0,0-3.2,6.2,5.81,5.81,0,0,0,1.54,4.25,10.57,10.57,0,0,0,3.76,2.47A20.43,20.43,0,0,0,27,28.61l4.29.61a50,50,0,0,1,8.51,1.9,21,21,0,0,1,6.64,3.44A15.14,15.14,0,0,1,50.74,40,17.43,17.43,0,0,1,52.28,47.6Z"/><path class="cls-2" d="M107.69,8.4a4.84,4.84,0,0,1-1.58,3.72,5.26,5.26,0,0,1-3.69,1.46H88V61.45a5.27,5.27,0,1,1-10.53,0V13.58H63a5.22,5.22,0,0,1-3.68-1.46A4.84,4.84,0,0,1,57.71,8.4a5,5,0,0,1,1.54-3.65A5.09,5.09,0,0,1,63,3.21h39.45a5.17,5.17,0,0,1,3.69,1.54A5,5,0,0,1,107.69,8.4Z"/><path class="cls-3" d="M153.29,58.94a8.06,8.06,0,0,1,.4,2.92,5.71,5.71,0,0,1-.68,2.47,4.21,4.21,0,0,1-1.79,1.7,5.92,5.92,0,0,1-2.79.61A4.05,4.05,0,0,1,145,65.22a10.79,10.79,0,0,1-1.66-3l-5.51-16.12H119l-6.89,17a8.48,8.48,0,0,1-2.06,2.63,5.51,5.51,0,0,1-3.37.85,3.89,3.89,0,0,1-3.24-1.58,5.21,5.21,0,0,1-1.21-3.2,3.61,3.61,0,0,1,.16-1.14,2.43,2.43,0,0,0,.16-.64c.11-.27.39-1,.85-2.11L105,54.08c.6-1.46,1.19-2.94,1.79-4.45s1.1-2.78,1.53-3.81a4.11,4.11,0,0,1-2.51-2,6.2,6.2,0,0,1-.64-2.72,4.88,4.88,0,0,1,1.45-3.52A5.86,5.86,0,0,1,111,36.1h1.37L124.05,6.7a8.85,8.85,0,0,1,.69-1.54,7.18,7.18,0,0,1,1.09-1.5,4.92,4.92,0,0,1,1.66-1.13A6.09,6.09,0,0,1,130,2.08a5.77,5.77,0,0,1,2.55.49,5.29,5.29,0,0,1,1.7,1.25,6.74,6.74,0,0,1,1.1,1.66,15.33,15.33,0,0,1,.65,1.7ZM135.15,37l-5.84-17.57L122.43,37Z"/><path class="cls-2" d="M205.45,58.21a6.85,6.85,0,0,1,1.26,2.11,4.35,4.35,0,0,1,.24,2,5.21,5.21,0,0,1-.57,1.79,4.7,4.7,0,0,1-1.09,1.41,4.17,4.17,0,0,1-2.06,1.1,5.1,5.1,0,0,1-2.1,0,6.7,6.7,0,0,1-3.35-2L179.27,42.42c-1,0-2.06,0-3.11,0a20.1,20.1,0,0,1-3.27-.37V61.37a5.34,5.34,0,0,1-1.47,3.77,4.81,4.81,0,0,1-3.67,1.58h-.25a4.81,4.81,0,0,1-3.67-1.58,5.34,5.34,0,0,1-1.47-3.77V7.83a6.74,6.74,0,0,1,.57-3,4.8,4.8,0,0,1,1.37-1.74A4.63,4.63,0,0,1,166,2.28a7.06,7.06,0,0,1,1.45-.2,4.73,4.73,0,0,1,1.91.45A4.06,4.06,0,0,1,171,3.86a20.55,20.55,0,0,1,3.72-1.21,17.88,17.88,0,0,1,4.13-.57,33.64,33.64,0,0,1,9.81,1.42A27.19,27.19,0,0,1,197,7.55,20.11,20.11,0,0,1,202.74,14a17,17,0,0,1,2.15,8.5,18.25,18.25,0,0,1-1.22,6.89,17.81,17.81,0,0,1-3.2,5.22,18.5,18.5,0,0,1-4.54,3.73,24.58,24.58,0,0,1-5.14,2.31ZM194.52,22.49a8.35,8.35,0,0,0-1.74-5.55,11,11,0,0,0-4.24-3.11,17.86,17.86,0,0,0-5.16-1.34,43.26,43.26,0,0,0-4.52-.28,21.56,21.56,0,0,0-2.86.24,15.29,15.29,0,0,0-3.11.73V31.73a6.85,6.85,0,0,0,1.17.16c.62.05,1,.08,1.17.08a2.45,2.45,0,0,1,.69-1.66,4,4,0,0,1,1.77-1.13,4.62,4.62,0,0,1,2.38-.13,4.5,4.5,0,0,1,2.42,1.46L184,32.13a19.15,19.15,0,0,0,3.83-.89,11.91,11.91,0,0,0,3.39-1.78,8.72,8.72,0,0,0,2.42-2.88A8.54,8.54,0,0,0,194.52,22.49Z"/><path class="cls-2" d="M260.53,8.4A4.84,4.84,0,0,1,259,12.12a5.22,5.22,0,0,1-3.68,1.46H240.85V61.45a5.26,5.26,0,0,1-5.27,5.27,5.26,5.26,0,0,1-5.26-5.27V13.58h-14.5a5.24,5.24,0,0,1-3.69-1.46,4.84,4.84,0,0,1-1.58-3.72,5,5,0,0,1,1.54-3.65,5.11,5.11,0,0,1,3.73-1.54h39.45A5.13,5.13,0,0,1,259,4.75,5,5,0,0,1,260.53,8.4Z"/></g></g></svg>